{"title":"Exorcismus.2010.DVDRip.XViD.ENG.AC3-LuCiFeR","uid":6380734,"size":1470625206,"categoryP":"video","categoryS":"movies","magnet":"?xt=urn:btih:6161701c029ee8019775ce405cf6470f6e7efb69&amp;dn=Exorcismus.2010.DVDRip.XViD.ENG.AC3-LuCiFeR&amp;tr=udp%3A%2F%2Ftracker.openbittorrent.com%3A80&amp;tr=udp%3A%2F%2Fopen.demonii.com%3A1337&amp;tr=udp%3A%2F%2Ftracker.coppersurfer.tk%3A6969&amp;tr=udp%3A%2F%2Fexodus.desync.com%3A6969","seeders":0,"leechers":1,"uploader":"HORRORTEAM-BG","files":-1,"time":1305019704,"description":"Exorcismus.2010.DVDRip.XViD.ENG.AC3-LuCiFeR.avi\nFormat                           : AVI\nFormat/Info                      : Audio Video Interleave\nFile size                        : 1.37 GiB\nDuration                         : 1h 36mn\nOverall bit rate                 : 2 027 Kbps\nWriting application              : Nandub v1.0rc2\nWriting library                  : Nandub build 1853/release\n\nVideo\nID                               : 0\nFormat                           : MPEG-4 Visual\nFormat profile                   : Advanced Simple@L5\nFormat settings, BVOP            : No\nFormat settings, QPel            : No\nFormat settings, GMC             : No warppoints\nFormat settings, Matrix          : Custom\nCodec ID                         : XVID\nCodec ID/Hint                    : XviD\nDuration                         : 1h 36mn\nBit rate                         : 1 569 Kbps\nWidth                            : 720 pixels\nHeight                           : 304 pixels\nDisplay aspect ratio             : 2.35:1\nFrame rate                       : 25.000 fps\nColor space                      : YUV\nChroma subsampling               : 4:2:0\nBit depth                        : 8 bits\nScan type                        : Progressive\nCompression mode                 : Lossy\nBits/(Pixel*Frame)               : 0.287\nStream size                      : 1.06 GiB (77%)\nWriting library                  : XviD 58\n\nAudio\nID                               : 1\nFormat                           : AC-3\nFormat/Info                      : Audio Coding 3\nMode extension                   : CM (complete main)\nCodec ID                         : 2000\nDuration                         : 1h 36mn\nBit rate mode                    : Constant\nBit rate                         : 448 Kbps\nChannel(s)                       : 6 channels\nChannel positions                : Front: L C R, Side: L R, LFE\nSampling rate                    : 48.0 KHz\nBit depth                        : 16 bits\nCompression mode                 : Lossy\nStream size                      : 310 MiB (22%)\nAlignment                        : Split accross interleaves\nInterleave, duration             : 40 ms (1.00 video frame)\nInterleave, preload duration     : 500 ms\n\n\nA family allows their young daughter's exorcism to be recorded secretly.","torrent":{"xt":"urn:btih:6161701c029ee8019775ce405cf6470f6e7efb69","amp;dn":"Exorcismus.2010.DVDRip.XViD.ENG.AC3-LuCiFeR","amp;tr":["udp%3A%2F%2Ftracker.openbittorrent.com%3A80","udp%3A%2F%2Fopen.demonii.com%3A1337","udp%3A%2F%2Ftracker.coppersurfer.tk%3A6969","udp%3A%2F%2Fexodus.desync.com%3A6969"],"infoHash":"6161701c029ee8019775ce405cf6470f6e7efb69","infoHashBuffer":{"type":"Buffer","data":[97,97,112,28,2,158,232,1,151,117,206,64,92,246,71,15,110,126,251,105]},"announce":[],"urlList":[]}}